<svg xmlns="http://www.w3.org/2000/svg" xmlns:xlink="http://www.w3.org/1999/xlink" contentStyleType="text/css" data-diagram-type="DESCRIPTION" height="1355px" preserveAspectRatio="none" style="width:1084px;height:1355px;background:#FFFFFF;" version="1.1" viewBox="0 0 1084 1355" width="1084px" zoomAndPan="magnify"><?plantuml 1.2026.6?><defs/><g><g class="title" data-source-line="9"><text fill="#000000" font-family="sans-serif" font-size="14" font-weight="700" lengthAdjust="spacing" textLength="268.8027" x="404.5576" y="24.5332">CARREGAJA &#8212; Modelo de Caso de Uso</text></g><!--cluster CARREGAJA--><g class="cluster" data-qualified-name="CARREGAJA" data-source-line="29" id="ent0005"><rect fill="none" height="1113" rx="2.5" ry="2.5" style="stroke:#264653;stroke-width:1;" width="882" x="171" y="120.1094"/><text fill="#000000" font-family="sans-serif" font-size="14" font-weight="700" lengthAdjust="spacing" textLength="88.6758" x="567.6621" y="136.6426">CARREGAJA</text></g><!--entity UC01--><g class="entity" data-qualified-name="CARREGAJA.UC01" data-source-line="32" id="ent0006"><ellipse cx="305.1897" cy="181.2448" fill="#F7F9F9" rx="107.1897" ry="25.1355" style="stroke:#264653;stroke-width:0.5;"/><text fill="#000000" font-family="sans-serif" font-size="14" lengthAdjust="spacing" textLength="35.793" x="287.2932" y="173.5477">UC01</text><text fill="#000000" font-family="sans-serif" font-size="14" lengthAdjust="spacing" textLength="165.7715" x="222.3039" y="191.1571">Consultar Painel de Vagas</text></g><!--entity UC02--><g class="entity" data-qualified-name="CARREGAJA.UC02" data-source-line="33" id="ent0007"><ellipse cx="646.2126" cy="190.2472" fill="#F7F9F9" rx="106.2126" ry="25.1379" style="stroke:#264653;stroke-width:0.5;"/><text fill="#000000" font-family="sans-serif" font-size="14" lengthAdjust="spacing" textLength="35.793" x="628.3162" y="182.5541">UC02</text><text fill="#000000" font-family="sans-serif" font-size="14" lengthAdjust="spacing" textLength="164.1992" x="564.113" y="200.1635">Iniciar Sess&#227;o de Recarga</text></g><!--entity UC03--><g class="entity" data-qualified-name="CARREGAJA.UC03" data-source-line="34" id="ent0008"><ellipse cx="969.2877" cy="190.0655" fill="#F7F9F9" rx="67.2877" ry="33.9562" style="stroke:#264653;stroke-width:0.5;"/><text fill="#000000" font-family="sans-serif" font-size="14" lengthAdjust="spacing" textLength="35.793" x="951.3912" y="174.4424">UC03</text><text fill="#000000" font-family="sans-serif" font-size="14" lengthAdjust="spacing" textLength="109.71" x="914.4327" y="192.0518">Calcular Previs&#227;o</text><text fill="#000000" font-family="sans-serif" font-size="14" lengthAdjust="spacing" textLength="85.6133" x="926.4811" y="209.6612">de Conclus&#227;o</text></g><!--entity UC04--><g class="entity" data-qualified-name="CARREGAJA.UC04" data-source-line="35" id="ent0009"><ellipse cx="305.0884" cy="272.9041" fill="#F7F9F9" rx="77.5884" ry="31.2947" style="stroke:#264653;stroke-width:0.5;"/><text fill="#000000" font-family="sans-serif" font-size="14" lengthAdjust="spacing" textLength="35.793" x="287.1919" y="259.5453">UC04</text><text fill="#000000" font-family="sans-serif" font-size="14" lengthAdjust="spacing" textLength="139.2617" x="235.4576" y="277.1547">Utilizar Perfil Gen&#233;rico</text><text fill="#000000" font-family="sans-serif" font-size="14" lengthAdjust="spacing" textLength="66.1582" x="272.0093" y="294.764">de Ve&#237;culo</text></g><!--entity UC05--><g class="entity" data-qualified-name="CARREGAJA.UC05" data-source-line="38" id="ent0010"><ellipse cx="305.2168" cy="450.9527" fill="#F7F9F9" rx="114.7168" ry="25.3434" style="stroke:#264653;stroke-width:0.5;"/><text fill="#000000" font-family="sans-serif" font-size="14" lengthAdjust="spacing" textLength="35.793" x="287.3203" y="443.0073">UC05</text><text fill="#000000" font-family="sans-serif" font-size="14" lengthAdjust="spacing" textLength="180.5371" x="214.9483" y="460.6167">Encerrar Sess&#227;o de Recarga</text></g><!--entity UC06--><g class="entity" data-qualified-name="CARREGAJA.UC06" data-source-line="39" id="ent0011"><ellipse cx="646.1999" cy="451.2909" fill="#F7F9F9" rx="92.1999" ry="25.1816" style="stroke:#264653;stroke-width:0.5;"/><text fill="#000000" font-family="sans-serif" font-size="14" lengthAdjust="spacing" textLength="35.793" x="628.3034" y="443.6698">UC06</text><text fill="#000000" font-family="sans-serif" font-size="14" lengthAdjust="spacing" textLength="141.627" x="575.3864" y="461.2792">Localizar Sess&#227;o Ativa</text></g><!--entity UC07--><g class="entity" data-qualified-name="CARREGAJA.UC07" data-source-line="40" id="ent0012"><ellipse cx="646.0508" cy="536.2752" fill="#F7F9F9" rx="96.5508" ry="25.1658" style="stroke:#264653;stroke-width:0.5;"/><text fill="#000000" font-family="sans-serif" font-size="14" lengthAdjust="spacing" textLength="35.793" x="628.1543" y="528.6281">UC07</text><text fill="#000000" font-family="sans-serif" font-size="14" lengthAdjust="spacing" textLength="148.6406" x="571.7305" y="546.2375">Apurar Valor da Sess&#227;o</text></g><!--entity UC08--><g class="entity" data-qualified-name="CARREGAJA.UC08" data-source-line="41" id="ent0013"><ellipse cx="304.8034" cy="365.2548" fill="#F7F9F9" rx="103.3034" ry="25.1454" style="stroke:#264653;stroke-width:0.5;"/><text fill="#000000" font-family="sans-serif" font-size="14" lengthAdjust="spacing" textLength="35.793" x="286.907" y="357.5741">UC08</text><text fill="#000000" font-family="sans-serif" font-size="14" lengthAdjust="spacing" textLength="159.5166" x="225.0451" y="375.1835">Consultar Sess&#245;es Ativas</text></g><!--entity UC09--><g class="entity" data-qualified-name="CARREGAJA.UC09" data-source-line="44" id="ent0014"><ellipse cx="304.8311" cy="641.3071" fill="#F7F9F9" rx="88.3311" ry="25.1977" style="stroke:#264653;stroke-width:0.5;"/><text fill="#000000" font-family="sans-serif" font-size="14" lengthAdjust="spacing" textLength="35.793" x="286.9346" y="633.7124">UC09</text><text fill="#000000" font-family="sans-serif" font-size="14" lengthAdjust="spacing" textLength="135.3857" x="237.1382" y="651.3218">Encerrar Sess&#227;o &#211;rf&#227;</text></g><!--entity UC10--><g class="entity" data-qualified-name="CARREGAJA.UC10" data-source-line="45" id="ent0015"><ellipse cx="304.7637" cy="814.0621" fill="#F7F9F9" rx="117.7637" ry="25.9527" style="stroke:#264653;stroke-width:0.5;"/><text fill="#000000" font-family="sans-serif" font-size="14" lengthAdjust="spacing" textLength="35.793" x="286.8672" y="805.4995">UC10</text><text fill="#000000" font-family="sans-serif" font-size="14" lengthAdjust="spacing" textLength="192.1992" x="208.6641" y="823.1089">Manter Vagas com Carregador</text></g><!--entity UC11--><g class="entity" data-qualified-name="CARREGAJA.UC11" data-source-line="46" id="ent0016"><ellipse cx="305.1413" cy="900.2426" fill="#F7F9F9" rx="108.1413" ry="25.1332" style="stroke:#264653;stroke-width:0.5;"/><text fill="#000000" font-family="sans-serif" font-size="14" lengthAdjust="spacing" textLength="35.793" x="287.2448" y="892.5417">UC11</text><text fill="#000000" font-family="sans-serif" font-size="14" lengthAdjust="spacing" textLength="167.3027" x="221.49" y="910.1511">Definir Tarifa de Ocupa&#231;&#227;o</text></g><!--entity UC12--><g class="entity" data-qualified-name="CARREGAJA.UC12" data-source-line="47" id="ent0017"><ellipse cx="305.2168" cy="985.9527" fill="#F7F9F9" rx="114.7168" ry="25.3434" style="stroke:#264653;stroke-width:0.5;"/><text fill="#000000" font-family="sans-serif" font-size="14" lengthAdjust="spacing" textLength="35.793" x="287.3203" y="978.0073">UC12</text><text fill="#000000" font-family="sans-serif" font-size="14" lengthAdjust="spacing" textLength="180.5371" x="214.9483" y="995.6167">Manter Operadores de Caixa</text></g><!--entity UC13--><g class="entity" data-qualified-name="CARREGAJA.UC13" data-source-line="48" id="ent0018"><ellipse cx="304.9933" cy="546.0231" fill="#F7F9F9" rx="89.9933" ry="34.4137" style="stroke:#264653;stroke-width:0.5;"/><text fill="#000000" font-family="sans-serif" font-size="14" lengthAdjust="spacing" textLength="35.793" x="287.0968" y="529.3907">UC13</text><text fill="#000000" font-family="sans-serif" font-size="14" lengthAdjust="spacing" textLength="146.2959" x="231.8454" y="547.0001">Consultar Relat&#243;rios de</text><text fill="#000000" font-family="sans-serif" font-size="14" lengthAdjust="spacing" textLength="123.7236" x="243.1315" y="564.6094">Utiliza&#231;&#227;o e Receita</text></g><!--entity UC14--><g class="entity" data-qualified-name="CARREGAJA.UC14" data-source-line="51" id="ent0019"><ellipse cx="305.1414" cy="1082.9657" fill="#F7F9F9" rx="80.6414" ry="36.3563" style="stroke:#264653;stroke-width:0.5;"/><text fill="#000000" font-family="sans-serif" font-size="14" lengthAdjust="spacing" textLength="35.793" x="287.2449" y="1064.617">UC14</text><text fill="#000000" font-family="sans-serif" font-size="14" lengthAdjust="spacing" textLength="122.9648" x="243.659" y="1082.2263">Manter Cat&#225;logo de</text><text fill="#000000" font-family="sans-serif" font-size="14" lengthAdjust="spacing" textLength="122.9648" x="243.659" y="1099.8357">Modelos de Ve&#237;culo</text></g><!--entity UC15--><g class="entity" data-qualified-name="CARREGAJA.UC15" data-source-line="52" id="ent0020"><ellipse cx="305.0022" cy="1186.2022" fill="#F7F9F9" rx="87.0022" ry="31.0928" style="stroke:#264653;stroke-width:0.5;"/><text fill="#000000" font-family="sans-serif" font-size="14" lengthAdjust="spacing" textLength="35.793" x="287.1057" y="1173.1364">UC15</text><text fill="#000000" font-family="sans-serif" font-size="14" lengthAdjust="spacing" textLength="157.9648" x="226.0198" y="1190.7458">Manter Estabelecimentos</text><text fill="#000000" font-family="sans-serif" font-size="14" lengthAdjust="spacing" textLength="68.4824" x="270.761" y="1208.3552">Assinantes</text></g><!--entity UC16--><g class="entity" data-qualified-name="CARREGAJA.UC16" data-source-line="55" id="ent0021"><ellipse cx="304.821" cy="726.8788" fill="#F7F9F9" rx="75.821" ry="25.2695" style="stroke:#264653;stroke-width:0.5;"/><text fill="#000000" font-family="sans-serif" font-size="14" lengthAdjust="spacing" textLength="35.793" x="286.9245" y="719.4017">UC16</text><text fill="#000000" font-family="sans-serif" font-size="14" lengthAdjust="spacing" textLength="115.165" x="247.2385" y="737.0111">Autenticar Usu&#225;rio</text></g><!--entity MOT--><g class="entity" data-qualified-name="MOT" data-source-line="24" id="ent0001"><ellipse cx="64.7861" cy="110.1094" fill="#F1F1F1" rx="16" ry="16" style="stroke:#181818;stroke-width:0.5;"/><path d="M64.7861,130.1094 C68.7861,130.1094 71.7861,130.1094 75.7861,126.1094 C83.7861,126.1094 91.7861,134.1094 91.7861,142.1094 L91.7861,146.1094 C91.7861,150.1094 87.7861,154.1094 83.7861,154.1094 L45.7861,154.1094 C41.7861,154.1094 37.7861,150.1094 37.7861,146.1094 L37.7861,142.1094 C37.7861,134.1094 45.7861,126.1094 53.7861,126.1094 C57.7861,130.1094 60.7861,130.1094 64.7861,130.1094" fill="#F1F1F1" style="stroke:#181818;stroke-width:0.5;"/><text fill="#000000" font-family="sans-serif" font-size="14" lengthAdjust="spacing" textLength="57.5723" x="36" y="169.1426">Motorista</text></g><!--entity OPC--><g class="entity" data-qualified-name="OPC" data-source-line="25" id="ent0002"><ellipse cx="65.1445" cy="428.1094" fill="#F1F1F1" rx="16" ry="16" style="stroke:#181818;stroke-width:0.5;"/><path d="M65.1445,448.1094 C69.1445,448.1094 72.1445,448.1094 76.1445,444.1094 C84.1445,444.1094 92.1445,452.1094 92.1445,460.1094 L92.1445,464.1094 C92.1445,468.1094 88.1445,472.1094 84.1445,472.1094 L46.1445,472.1094 C42.1445,472.1094 38.1445,468.1094 38.1445,464.1094 L38.1445,460.1094 C38.1445,452.1094 46.1445,444.1094 54.1445,444.1094 C58.1445,448.1094 61.1445,448.1094 65.1445,448.1094" fill="#F1F1F1" style="stroke:#181818;stroke-width:0.5;"/><text fill="#000000" font-family="sans-serif" font-size="14" lengthAdjust="spacing" textLength="118.2891" x="6" y="487.1426">Operador de Caixa</text></g><!--entity EST--><g class="entity" data-qualified-name="EST" data-source-line="26" id="ent0003"><ellipse cx="64.7515" cy="662.1094" fill="#F1F1F1" rx="16" ry="16" style="stroke:#181818;stroke-width:0.5;"/><path d="M64.7515,682.1094 C68.7515,682.1094 71.7515,682.1094 75.7515,678.1094 C83.7515,678.1094 91.7515,686.1094 91.7515,694.1094 L91.7515,698.1094 C91.7515,702.1094 87.7515,706.1094 83.7515,706.1094 L45.7515,706.1094 C41.7515,706.1094 37.7515,702.1094 37.7515,698.1094 L37.7515,694.1094 C37.7515,686.1094 45.7515,678.1094 53.7515,678.1094 C57.7515,682.1094 60.7515,682.1094 64.7515,682.1094" fill="#F1F1F1" style="stroke:#181818;stroke-width:0.5;"/><text fill="#000000" font-family="sans-serif" font-size="14" lengthAdjust="spacing" textLength="103.5029" x="13" y="721.1426">Estabelecimento</text></g><!--entity ADM--><g class="entity" data-qualified-name="ADM" data-source-line="27" id="ent0004"><ellipse cx="65.1826" cy="1051.6094" fill="#F1F1F1" rx="16" ry="16" style="stroke:#181818;stroke-width:0.5;"/><path d="M65.1826,1071.6094 C69.1826,1071.6094 72.1826,1071.6094 76.1826,1067.6094 C84.1826,1067.6094 92.1826,1075.6094 92.1826,1083.6094 L92.1826,1087.6094 C92.1826,1091.6094 88.1826,1095.6094 84.1826,1095.6094 L46.1826,1095.6094 C42.1826,1095.6094 38.1826,1091.6094 38.1826,1087.6094 L38.1826,1083.6094 C38.1826,1075.6094 46.1826,1067.6094 54.1826,1067.6094 C58.1826,1071.6094 61.1826,1071.6094 65.1826,1071.6094" fill="#F1F1F1" style="stroke:#181818;stroke-width:0.5;"/><text fill="#000000" font-family="sans-serif" font-size="14" lengthAdjust="spacing" textLength="86.3652" x="22" y="1110.6426">Administrador</text><text fill="#000000" font-family="sans-serif" font-size="14" lengthAdjust="spacing" textLength="70.0342" x="22" y="1128.252">do Sistema</text></g><g class="entity" data-qualified-name="GMN44" data-source-line="89" id="ent0045"><path d="M869,44.6094 L869,103.6641 A0,0 0 0 0 869,103.6641 L965.5,103.6641 L969.5,155.6694 L973.5,103.6641 L1069.918,103.6641 A0,0 0 0 0 1069.918,103.6641 L1069.918,54.6094 L1059.918,44.6094 L869,44.6094 A0,0 0 0 0 869,44.6094" fill="#FEFFDD" style="stroke:#181818;stroke-width:0.5;"/><path d="M1059.918,44.6094 L1059.918,54.6094 L1069.918,54.6094 L1059.918,44.6094" fill="#FEFFDD" style="stroke:#181818;stroke-width:0.5;"/><text fill="#000000" font-family="sans-serif" font-size="13" lengthAdjust="spacing" textLength="103.708" x="875" y="63.1045">Pot&#234;ncia efetiva =</text><text fill="#000000" font-family="sans-serif" font-size="13" lengthAdjust="spacing" textLength="162.5889" x="875" y="79.4561">min(pot&#234;ncia do carregador,</text><text fill="#000000" font-family="sans-serif" font-size="13" lengthAdjust="spacing" textLength="165.4707" x="889.4473" y="95.8076">pot&#234;ncia m&#225;xima do ve&#237;culo)</text></g><g class="entity" data-qualified-name="GMN47" data-source-line="95" id="ent0048"><path d="M556,44.6094 L556,103.6641 L736.3579,103.6641 L736.3579,54.6094 L726.3579,44.6094 L556,44.6094" fill="#FEFFDD" style="stroke:#181818;stroke-width:0.5;"/><path d="M726.3579,44.6094 L726.3579,54.6094 L736.3579,54.6094 L726.3579,44.6094" fill="#FEFFDD" style="stroke:#181818;stroke-width:1;"/><text fill="#000000" font-family="sans-serif" font-size="13" lengthAdjust="spacing" textLength="159.3579" x="562" y="63.1045">Valor = tempo de ocupa&#231;&#227;o</text><text fill="#000000" font-family="sans-serif" font-size="13" lengthAdjust="spacing" textLength="132.2471" x="562" y="79.4561">x tarifa/hora vigente no</text><text fill="#000000" font-family="sans-serif" font-size="13" lengthAdjust="spacing" textLength="93.2217" x="562" y="95.8076">in&#237;cio da sess&#227;o</text></g><g class="entity" data-qualified-name="GMN50" data-source-line="101" id="ent0051"><path d="M549,1249.1094 L549,1340.8672 L742.7134,1340.8672 L742.7134,1259.1094 L732.7134,1249.1094 L549,1249.1094" fill="#FEFFDD" style="stroke:#181818;stroke-width:0.5;"/><path d="M732.7134,1249.1094 L732.7134,1259.1094 L742.7134,1259.1094 L732.7134,1249.1094" fill="#FEFFDD" style="stroke:#181818;stroke-width:1;"/><text fill="#000000" font-family="sans-serif" font-size="13" lengthAdjust="spacing" textLength="147.4243" x="555" y="1267.6045">Pr&#233;-condi&#231;&#227;o de todos os</text><text fill="#000000" font-family="sans-serif" font-size="13" lengthAdjust="spacing" textLength="153.207" x="555" y="1283.9561">casos de uso do Operador</text><text fill="#000000" font-family="sans-serif" font-size="13" lengthAdjust="spacing" textLength="172.7134" x="555" y="1300.3076">de Caixa, do Estabelecimento</text><text fill="#000000" font-family="sans-serif" font-size="13" lengthAdjust="spacing" textLength="112.7217" x="555" y="1316.6592">e do Administrador.</text><text fill="#000000" font-family="sans-serif" font-size="13" lengthAdjust="spacing" textLength="169.8125" x="555" y="1333.0107">O Motorista n&#227;o se autentica.</text></g><!--link MOT to UC01--><g class="link" data-entity-1="ent0001" data-entity-2="ent0006" data-link-type="dependency" data-source-line="59" id="lnk22"><path d="M94.24,138.7994 C125.94,145.1994 173.9087,154.871 218.6387,163.891" fill="none" id="MOT-to-UC01" style="stroke:#264653;stroke-width:1;"/><polygon fill="#264653" points="223.54,164.8794,215.5083,159.1792,218.6387,163.891,213.9269,167.0214,223.54,164.8794" style="stroke:#264653;stroke-width:1;stroke-linejoin:miter;stroke-miterlimit:10;"/></g><!--link MOT to UC02--><g class="link" data-entity-1="ent0001" data-entity-2="ent0007" data-link-type="dependency" data-source-line="60" id="lnk23"><path d="M94.01,128.9494 C111.51,126.7594 134.53,124.6094 155,125.1094 C274.22,127.9994 304.9,121.5494 423,138.1094 C475.53,145.4694 529.0565,158.0997 572.7565,169.6697" fill="none" id="MOT-to-UC02" style="stroke:#264653;stroke-width:1;"/><polygon fill="#264653" points="577.59,170.9494,569.9135,164.7791,572.7565,169.6697,567.866,172.5127,577.59,170.9494" style="stroke:#264653;stroke-width:1;stroke-linejoin:miter;stroke-miterlimit:10;"/></g><!--link OPC to UC05--><g class="link" data-entity-1="ent0002" data-entity-2="ent0010" data-link-type="dependency" data-source-line="62" id="lnk24"><path d="M124.22,451.1094 C144.18,451.1094 162.25,451.1094 185.07,451.1094" fill="none" id="OPC-to-UC05" style="stroke:#264653;stroke-width:1;"/><polygon fill="#264653" points="190.07,451.1094,181.07,447.1094,185.07,451.1094,181.07,455.1094,190.07,451.1094" style="stroke:#264653;stroke-width:1;stroke-linejoin:miter;stroke-miterlimit:10;"/></g><!--link OPC to UC08--><g class="link" data-entity-1="ent0002" data-entity-2="ent0013" data-link-type="dependency" data-source-line="63" id="lnk25"><path d="M124,424.0294 C136.73,418.4694 150.23,412.8694 163,408.1094 C186.62,399.3094 208.1485,392.3382 231.5885,385.3482" fill="none" id="OPC-to-UC08" style="stroke:#264653;stroke-width:1;"/><polygon fill="#264653" points="236.38,383.9194,226.6122,382.6581,231.5885,385.3482,228.8984,390.3245,236.38,383.9194" style="stroke:#264653;stroke-width:1;stroke-linejoin:miter;stroke-miterlimit:10;"/></g><!--link OPC to UC16--><g class="link" data-entity-1="ent0002" data-entity-2="ent0021" data-link-type="dependency" data-source-line="64" id="lnk26"><path d="M78.11,490.8694 C96.79,549.7994 133.55,656.2894 163,683.1094 C182.53,700.8894 204.3236,710.2597 229.1936,716.5697" fill="none" id="OPC-to-UC16" style="stroke:#264653;stroke-width:1;"/><polygon fill="#264653" points="234.04,717.7994,226.3001,711.7089,229.1936,716.5697,224.3327,719.4632,234.04,717.7994" style="stroke:#264653;stroke-width:1;stroke-linejoin:miter;stroke-miterlimit:10;"/></g><!--link EST to UC01--><g class="link" data-entity-1="ent0003" data-entity-2="ent0006" data-link-type="dependency" data-source-line="66" id="lnk27"><path d="M81.34,645.2694 C94.46,609.7794 112.92,556.1594 124,508.1094 C138.31,446.0294 121.69,272.5994 163,224.1094 C175.53,209.3994 188.2154,201.2944 206.5354,194.8244" fill="none" id="EST-to-UC01" style="stroke:#264653;stroke-width:1;"/><polygon fill="#264653" points="211.25,193.1594,201.4317,192.3848,206.5354,194.8244,204.0957,199.9281,211.25,193.1594" style="stroke:#264653;stroke-width:1;stroke-linejoin:miter;stroke-miterlimit:10;"/></g><!--link EST to UC08--><g class="link" data-entity-1="ent0003" data-entity-2="ent0013" data-link-type="dependency" data-source-line="67" id="lnk28"><path d="M101.14,645.4094 C120.78,620.6794 143.56,587.1694 155,553.1094 C160.14,537.8094 153.04,420.8094 163,408.1094 C175.16,392.5994 188.038,384.1734 206.708,377.6734" fill="none" id="EST-to-UC08" style="stroke:#264653;stroke-width:1;"/><polygon fill="#264653" points="211.43,376.0294,201.6152,375.2109,206.708,377.6734,204.2456,382.7661,211.43,376.0294" style="stroke:#264653;stroke-width:1;stroke-linejoin:miter;stroke-miterlimit:10;"/></g><!--link EST to UC09--><g class="link" data-entity-1="ent0003" data-entity-2="ent0014" data-link-type="dependency" data-source-line="68" id="lnk29"><path d="M117.06,675.6694 C150.11,669.5594 188.7632,662.4076 225.5232,655.6176" fill="none" id="EST-to-UC09" style="stroke:#264653;stroke-width:1;"/><polygon fill="#264653" points="230.44,654.7094,220.8632,652.4107,225.5232,655.6176,222.3163,660.2776,230.44,654.7094" style="stroke:#264653;stroke-width:1;stroke-linejoin:miter;stroke-miterlimit:10;"/></g><!--link EST to UC10--><g class="link" data-entity-1="ent0003" data-entity-2="ent0015" data-link-type="dependency" data-source-line="69" id="lnk30"><path d="M103.7,724.7594 C120.59,740.6794 141.52,758.0594 163,770.1094 C181.56,780.5194 198.143,787.2907 218.523,793.7407" fill="none" id="EST-to-UC10" style="stroke:#264653;stroke-width:1;"/><polygon fill="#264653" points="223.29,795.2494,215.9164,788.7202,218.523,793.7407,213.5025,796.3473,223.29,795.2494" style="stroke:#264653;stroke-width:1;stroke-linejoin:miter;stroke-miterlimit:10;"/></g><!--link EST to UC11--><g class="link" data-entity-1="ent0003" data-entity-2="ent0016" data-link-type="dependency" data-source-line="70" id="lnk31"><path d="M78.51,724.6794 C92.86,763.7994 120.1,822.6594 163,857.1094 C178.86,869.8494 193.7136,877.2778 213.2136,883.5978" fill="none" id="EST-to-UC11" style="stroke:#264653;stroke-width:1;"/><polygon fill="#264653" points="217.97,885.1394,210.6417,878.5594,213.2136,883.5978,208.1752,886.1697,217.97,885.1394" style="stroke:#264653;stroke-width:1;stroke-linejoin:miter;stroke-miterlimit:10;"/></g><!--link EST to UC12--><g class="link" data-entity-1="ent0003" data-entity-2="ent0017" data-link-type="dependency" data-source-line="71" id="lnk32"><path d="M70.19,724.9794 C78.22,781.2294 100.9,883.5394 163,942.1094 C176.9,955.2194 189.9394,962.7429 208.1194,969.2129" fill="none" id="EST-to-UC12" style="stroke:#264653;stroke-width:1;"/><polygon fill="#264653" points="212.83,970.8894,205.6921,964.1033,208.1194,969.2129,203.0098,971.6403,212.83,970.8894" style="stroke:#264653;stroke-width:1;stroke-linejoin:miter;stroke-miterlimit:10;"/></g><!--link EST to UC13--><g class="link" data-entity-1="ent0003" data-entity-2="ent0018" data-link-type="dependency" data-source-line="72" id="lnk33"><path d="M103.4,645.4694 C120.4,629.1394 141.49,611.0694 163,598.1094 C184.34,585.2494 204.6643,576.4114 227.6743,568.3014" fill="none" id="EST-to-UC13" style="stroke:#264653;stroke-width:1;"/><polygon fill="#264653" points="232.39,566.6394,222.5721,565.8586,227.6743,568.3014,225.2314,573.4036,232.39,566.6394" style="stroke:#264653;stroke-width:1;stroke-linejoin:miter;stroke-miterlimit:10;"/></g><!--link EST to UC16--><g class="link" data-entity-1="ent0003" data-entity-2="ent0021" data-link-type="dependency" data-source-line="73" id="lnk34"><path d="M117.06,694.1194 C152.16,700.3094 194.1961,707.7304 232.2761,714.4504" fill="none" id="EST-to-UC16" style="stroke:#264653;stroke-width:1;"/><polygon fill="#264653" points="237.2,715.3194,229.0321,709.8162,232.2761,714.4504,227.6418,717.6944,237.2,715.3194" style="stroke:#264653;stroke-width:1;stroke-linejoin:miter;stroke-miterlimit:10;"/></g><!--link ADM to UC14--><g class="link" data-entity-1="ent0004" data-entity-2="ent0019" data-link-type="dependency" data-source-line="75" id="lnk35"><path d="M108,1083.1094 C140.16,1083.1094 180.47,1083.1094 219.43,1083.1094" fill="none" id="ADM-to-UC14" style="stroke:#264653;stroke-width:1;"/><polygon fill="#264653" points="224.43,1083.1094,215.43,1079.1094,219.43,1083.1094,215.43,1087.1094,224.43,1083.1094" style="stroke:#264653;stroke-width:1;stroke-linejoin:miter;stroke-miterlimit:10;"/></g><!--link ADM to UC15--><g class="link" data-entity-1="ent0004" data-entity-2="ent0020" data-link-type="dependency" data-source-line="76" id="lnk36"><path d="M108.15,1108.6694 C124.89,1118.2594 144.53,1128.8394 163,1137.1094 C187.12,1147.9194 209.6701,1156.2976 233.7601,1164.3876" fill="none" id="ADM-to-UC15" style="stroke:#264653;stroke-width:1;"/><polygon fill="#264653" points="238.5,1165.9794,231.2417,1159.3223,233.7601,1164.3876,228.6948,1166.9061,238.5,1165.9794" style="stroke:#264653;stroke-width:1;stroke-linejoin:miter;stroke-miterlimit:10;"/></g><!--link ADM to UC16--><g class="link" data-entity-1="ent0004" data-entity-2="ent0021" data-link-type="dependency" data-source-line="77" id="lnk37"><path d="M67.44,1034.9794 C72.11,966.6994 90.73,842.0494 163,770.1094 C181.5,751.6894 202.7829,742.3162 227.5429,736.2662" fill="none" id="ADM-to-UC16" style="stroke:#264653;stroke-width:1;"/><polygon fill="#264653" points="232.4,735.0794,222.7078,733.33,227.5429,736.2662,224.6067,741.1013,232.4,735.0794" style="stroke:#264653;stroke-width:1;stroke-linejoin:miter;stroke-miterlimit:10;"/></g><!--link UC02 to UC03--><g class="link" data-entity-1="ent0007" data-entity-2="ent0008" data-link-type="dependency" data-source-line="80" id="lnk38"><path d="M752.27,190.1094 C801.53,190.1094 853.72,190.1094 896.9,190.1094" fill="none" id="UC02-to-UC03" style="stroke:#264653;stroke-width:1;stroke-dasharray:7,7;"/><polygon fill="#264653" points="901.9,190.1094,892.9,186.1094,896.9,190.1094,892.9,194.1094,901.9,190.1094" style="stroke:#264653;stroke-width:1;stroke-linejoin:miter;stroke-miterlimit:10;"/><text fill="#000000" font-family="sans-serif" font-size="13" lengthAdjust="spacing" textLength="55.6563" x="783" y="186.6045">&#171;include&#187;</text></g><!--link UC05 to UC06--><g class="link" data-entity-1="ent0010" data-entity-2="ent0011" data-link-type="dependency" data-source-line="81" id="lnk39"><path d="M419.83,451.1094 C463.49,451.1094 507.7,451.1094 548.95,451.1094" fill="none" id="UC05-to-UC06" style="stroke:#264653;stroke-width:1;stroke-dasharray:7,7;"/><polygon fill="#264653" points="553.95,451.1094,544.95,447.1094,548.95,451.1094,544.95,455.1094,553.95,451.1094" style="stroke:#264653;stroke-width:1;stroke-linejoin:miter;stroke-miterlimit:10;"/><text fill="#000000" font-family="sans-serif" font-size="13" lengthAdjust="spacing" textLength="55.6563" x="454" y="447.6045">&#171;include&#187;</text></g><!--link UC05 to UC07--><g class="link" data-entity-1="ent0010" data-entity-2="ent0012" data-link-type="dependency" data-source-line="82" id="lnk40"><path d="M381.66,470.0794 C439.81,484.6594 514.6301,503.4235 571.0701,517.5735" fill="none" id="UC05-to-UC07" style="stroke:#264653;stroke-width:1;stroke-dasharray:7,7;"/><polygon fill="#264653" points="575.92,518.7894,568.1629,512.7208,571.0701,517.5735,566.2174,520.4807,575.92,518.7894" style="stroke:#264653;stroke-width:1;stroke-linejoin:miter;stroke-miterlimit:10;"/><text fill="#000000" font-family="sans-serif" font-size="13" lengthAdjust="spacing" textLength="55.6563" x="454" y="485.6045">&#171;include&#187;</text></g><!--link UC09 to UC06--><g class="link" data-entity-1="ent0014" data-entity-2="ent0011" data-link-type="dependency" data-source-line="83" id="lnk41"><path d="M366.59,623.0594 C385.25,616.4094 405.48,608.0194 423,598.1094 C466.19,573.6694 474.37,562.6494 510,528.1094 C524.71,513.8494 523.34,505.0394 540,493.1094 C553.25,483.6194 564.3157,477.7463 579.4757,471.6063" fill="none" id="UC09-to-UC06" style="stroke:#264653;stroke-width:1;stroke-dasharray:7,7;"/><polygon fill="#264653" points="584.11,469.7294,574.2666,469.4004,579.4757,471.6063,577.2698,476.8154,584.11,469.7294" style="stroke:#264653;stroke-width:1;stroke-linejoin:miter;stroke-miterlimit:10;"/><text fill="#000000" font-family="sans-serif" font-size="13" lengthAdjust="spacing" textLength="55.6563" x="454" y="524.6045">&#171;include&#187;</text></g><!--link UC09 to UC07--><g class="link" data-entity-1="ent0014" data-entity-2="ent0012" data-link-type="dependency" data-source-line="84" id="lnk42"><path d="M384.49,652.3094 C423.25,654.9694 470.14,653.7894 510,640.1094 C555.89,624.3594 594.9143,589.7037 619.5343,564.2437" fill="none" id="UC09-to-UC07" style="stroke:#264653;stroke-width:1;stroke-dasharray:7,7;"/><polygon fill="#264653" points="623.01,560.6494,613.8782,564.3386,619.5343,564.2437,619.6291,569.8998,623.01,560.6494" style="stroke:#264653;stroke-width:1;stroke-linejoin:miter;stroke-miterlimit:10;"/><text fill="#000000" font-family="sans-serif" font-size="13" lengthAdjust="spacing" textLength="55.6563" x="454" y="636.6045">&#171;include&#187;</text></g><!--link UC04 to UC02--><g class="link" data-entity-1="ent0009" data-entity-2="ent0007" data-link-type="dependency" data-source-line="86" id="lnk43"><path d="M371.76,257.0094 C429.14,242.9594 507.4334,223.7882 566.9134,209.2282" fill="none" id="UC04-to-UC02" style="stroke:#264653;stroke-width:1;stroke-dasharray:7,7;"/><polygon fill="#264653" points="571.77,208.0394,562.077,206.294,566.9134,209.2282,563.9792,214.0646,571.77,208.0394" style="stroke:#264653;stroke-width:1;stroke-linejoin:miter;stroke-miterlimit:10;"/><text fill="#000000" font-family="sans-serif" font-size="13" lengthAdjust="spacing" textLength="53.4917" x="455" y="221.6045">&#171;extend&#187;</text></g><!--link UC07 to GMN47--><g class="link" data-entity-1="ent0012" data-entity-2="ent0048" data-link-type="association" data-source-line="95" id="lnk49"><path d="M559.61,524.7794 C529.86,516.2694 499.52,501.4394 481.5,475.6094 C400.63,359.6994 407.56,278.0594 481.5,157.6094 C498.26,130.3094 527.02,111.5994 555.86,98.9294" fill="none" id="UC07-GMN47" style="stroke:#264653;stroke-width:1;stroke-dasharray:7,7;"/></g><!--link UC16 to GMN50--><g class="link" data-entity-1="ent0021" data-entity-2="ent0051" data-link-type="association" data-source-line="101" id="lnk52"><path d="M372.13,739.2194 C390.82,745.5994 409.68,755.3094 423,770.1094 C565.02,927.8394 412.83,1063.1794 540,1233.1094 C544.31,1238.8694 549.33,1244.1994 554.79,1249.0994" fill="none" id="UC16-GMN50" style="stroke:#264653;stroke-width:1;stroke-dasharray:7,7;"/></g><?plantuml-src hLRDRkCs4BxhAGRf8Rl0nXlvBt6m2U0wFsYnGO9aavClN6cii2kHBaabQHS5-Wxj2mHxA5AWfw9Fe3VfatH8cJAjnEbbVP57mszcEFpc4pTX_slyeasOZ2ykZax6tuzX2qvbYhc45672j7jUqUFLBTVL5maPAfQ_9iYvaZ-WaNjmoRN1Wjc59wXG99mLA8n3Nc32LEPyrrZzbPIvr72KLuz6yKHg2jFyi80ZRLZ2fQZnrdkDocLD9HIkh3s8EzlaE4J5RrbgazXN5_XZoJKdqDjmAzUkvawHKlbn9xPbVvsEHOQR78Es_VlhxyytBefod1cWTYYUtHX8kSB4q2OZ_OcBELEiW3bBFh4CByrF5DEwcSXo31Re6zhg7HSPp5YkGyzOANataRbKy4rts1yEUe6J9KQgEYgxGosB45bgEXkDy3a2-9OAo9GiHRe8TRnpF3eUMOzKAQhL1By4KPfgwpZFhevS7R1nAkb1P64Rm3ISddtmZhCvaIgbVwvr_BvUS7O-yGiiCJvYZWbtp73keyi6FquBBYYm2p8Ln8e59zt2yU5f52tht6WERODgfg8tOQlvWIkb-iDoJaWwDOeIk6crRzl6rMGxdeg95BhC3LDmphZ0t36TPKoxr7PD2zETYky4fnbHS8cw9dSp9nxKRO5wb8ZbD3qsZy9w56cZr2ufahoqfiVsMjZ-L5mPdlEVBHRLZESqfg9wj0FeGlZ1z07w_zEKkLmCzvpsMK_wsWuDfk989AZKYziTj533gNWl4rRNx65ZGmFl4SCMOcSgnlFIPhbcbdmfypYFs6aXTiEpSsl_GLqdQSvkzqadJb2RXHxXAYVNzs3qJ0-gtzIi-kBpZ5OHyVPKd39XKDLKWaGMD1TAOMO9la35soqKiV4GPpG82ZumnMTETS-ISbuVdOUr21btcsH-3AaFAuDe5xL0lR1x5vWpK_sjkBJ0XcurOTnX8pTDgDwJfYx7juPGS-TAfkKBJOtxJTKJolsGoqowtBK6QtZAwxZV2Z5eGhJaHHEPjER2EZqNui7JiXCwp1TA91QFIqC1EP6TFWLbzK0jyl66LXZNV8w0qakI26g79UNpdo3IJyfzK6jCO7IZY9JJMuFGs0qCAY0Y2Ls628pTq1W51d4kC48CCIGmUg51YKY2lTKFZK5e3DVtmp8ik1YiwOZTF7GwhkeUxC6xTzoAOue71zOtyBxX2xwTfxxH2xZHEfnrzhspwvnuJsH8hK_GPmK-IcDehkNCY_QvDDMVzlO4E4EhGx1FRsaqNiqR3ur6qWZ1cwY-EItTHVLmpmktx7R1_jSH9GMRyRcyLXLhnTm7-jJDdJhBHZF8Um_6YSdR6waOtFACJW0f7hcue1HSMh7LjQwrSzLN7fSgjf9zhgh7hKIAb2yc7UaJczA1qcKFQ6UwdjnIEn7mUaGkhqTlxFlMk98RxUkLMq27tfv1S-C0OTFHO38_aPrbhVy1?></g></svg>